<!DOCTYPE svg PUBLIC "-//W3C//DTD SVG 20010904//EN" "http://www.w3.org/TR/2001/REC-SVG-20010904/DTD/svg10.dtd">
<svg version="1.0" xmlns="http://www.w3.org/2000/svg" width="1600px" height="1200px" viewBox="0 0 16000 12000" preserveAspectRatio="xMidYMid meet">
<g id="layer1" fill="#ffffff" stroke="none">
 <path d="M7813 6581 c-98 -25 -193 -115 -209 -197 -8 -44 19 -127 57 -175 l29 -37 -66 -53 c-134 -109 -247 -283 -296 -454 -18 -64 -22 -106 -22 -210 0 -137 17 -224 63 -325 l21 -45 -27 -24 c-23 -20 -34 -23 -78 -18 -65 7 -189 55 -300 118 l-86 47 -16 -25 c-16 -24 -16 -26 7 -43 67 -50 315 -160 362 -160 25 0 23 -12 -7 -40 -24 -23 -28 -23 -73 -12 -26 7 -107 42 -180 78 -121 60 -136 65 -149 51 -9 -9 -13 -22 -10 -30 8 -21 164 -105 264 -142 l81 -31 -19 -32 -20 -31 -52 20 c-29 11 -102 47 -164 79 l-112 58 -17 -26 c-16 -24 -16 -26 2 -39 30 -23 276 -143 292 -143 16 0 18 6 -32 -135 -75 -213 -76 -416 -5 -628 l29 -88 0 -535 c0 -362 4 -550 11 -580 14 -53 66 -104 108 -104 35 0 27 -5 636 439 113 83 145 101 165 97 59 -13 300 -18 384 -7 l88 11 157 -114 c314 -228 428 -310 498 -363 87 -66 133 -77 177 -42 56 44 56 40 56 638 0 515 1 552 19 593 33 77 62 210 68 313 7 127 -15 264 -63 390 -19 49 -35 94 -37 98 -1 5 36 25 83 46 99 43 222 111 227 126 2 6 -3 20 -11 30 -14 19 -17 19 -113 -32 -55 -29 -129 -64 -165 -77 l-65 -25 -14 27 c-7 15 -15 30 -16 33 -2 3 16 11 39 18 50 15 252 114 287 140 20 15 22 21 12 39 -7 12 -16 22 -22 22 -6 0 -48 -20 -92 -44 -91 -49 -228 -106 -256 -106 -17 0 -61 38 -61 53 0 4 9 7 20 7 39 0 301 117 364 163 17 12 17 14 -2 37 l-19 23 -119 -60 c-205 -104 -299 -126 -342 -80 l-22 24 19 44 c44 99 64 199 64 324 0 66 -5 131 -11 145 -9 24 -7 27 32 45 22 11 97 62 166 114 142 107 178 125 233 118 86 -12 133 -100 151 -282 13 -128 19 -145 63 -187 36 -34 73 -48 129 -48 55 0 91 18 132 65 42 47 45 65 40 213 -5 106 -10 141 -35 214 -40 116 -84 187 -162 260 -139 130 -310 167 -496 106 -86 -29 -124 -50 -222 -125 -49 -37 -110 -82 -136 -99 l-49 -32 -81 82 c-45 46 -95 93 -111 104 l-28 22 26 35 c103 134 59 286 -103 358 -58 26 -183 34 -260 17 -60 -13 -131 -46 -170 -78 l-25 -19 -59 38 c-33 22 -76 44 -96 50 -45 14 -216 21 -258 10z m452 -1662 c52 -14 75 -36 75 -70 0 -60 -88 -94 -172 -68 -100 32 -84 118 27 142 11 3 22 5 25 6 3 0 23 -4 45 -10z m-365 -296 c36 -17 83 -49 104 -71 l39 -41 -12 -54 c-32 -144 -154 -246 -335 -283 -66 -14 -91 -15 -150 -5 -89 15 -182 57 -230 106 -35 35 -38 41 -32 79 16 101 103 211 205 258 91 42 123 48 236 45 99 -3 117 -6 175 -34z m977 22 c116 -34 208 -107 252 -198 48 -100 49 -119 5 -166 -46 -52 -146 -100 -232 -112 -183 -26 -392 72 -462 217 -32 66 -38 129 -14 155 32 35 102 79 157 99 67 24 222 26 294 5z m332 -1332 l0 -328 -112 222 -111 222 44 37 c25 21 74 68 110 105 36 37 66 68 68 68 1 1 2 -146 1 -326z m-1776 140 l28 -22 -110 -218 -110 -218 0 319 -1 320 83 -80 c45 -44 95 -90 110 -101z"/>
 <path d="M7718 4494 c-31 -16 -68 -81 -68 -118 0 -60 50 -130 101 -141 52 -12 115 37 129 99 12 54 -4 106 -44 144 -39 35 -74 40 -118 16z"/>
 <path d="M8610 4472 c-64 -64 -66 -134 -6 -200 29 -31 40 -37 76 -37 37 0 47 6 75 38 58 67 54 150 -10 206 -50 44 -87 42 -135 -7z"/>
 </g>
<g id="layer2" fill="#000000" stroke="none">
 <path d="M0 6000 l0 -6000 8000 0 8000 0 0 6000 0 6000 -8000 0 -8000 0 0 -6000z m8071 551 c20 -6 63 -29 97 -50 47 -31 63 -37 71 -27 18 22 110 68 165 82 67 18 180 18 243 -1 172 -51 225 -209 116 -351 l-27 -36 39 -31 c22 -16 76 -67 121 -113 l81 -83 49 32 c27 18 88 63 137 100 98 75 136 96 222 125 180 59 355 25 485 -95 68 -63 114 -138 153 -251 26 -76 30 -104 34 -227 4 -128 3 -143 -16 -173 -59 -92 -210 -98 -275 -10 -15 21 -23 57 -32 150 -14 141 -40 212 -97 266 -42 40 -96 51 -148 29 -20 -8 -90 -55 -155 -105 -65 -49 -144 -103 -174 -120 -33 -17 -54 -35 -51 -43 12 -50 20 -165 15 -224 -7 -81 -37 -200 -65 -264 l-19 -45 32 -33 c25 -26 40 -33 70 -33 53 0 144 33 279 101 64 33 119 59 122 59 4 0 7 -7 7 -15 0 -17 -205 -121 -295 -149 -33 -10 -70 -23 -83 -27 l-23 -9 33 -40 c20 -24 42 -40 55 -40 32 0 164 54 261 107 53 28 87 42 93 36 6 -6 5 -14 -4 -21 -23 -20 -230 -119 -275 -133 -62 -18 -68 -30 -38 -78 l26 -41 68 26 c37 14 109 47 160 75 85 45 112 52 112 30 0 -8 -189 -105 -274 -141 -39 -16 -47 -23 -41 -37 80 -185 111 -334 102 -488 -6 -103 -35 -236 -68 -313 -18 -41 -19 -78 -19 -593 0 -590 -1 -603 -51 -629 -37 -20 -87 -4 -163 53 -70 53 -183 136 -497 363 l-157 114 -88 -11 c-84 -11 -325 -6 -384 7 -20 4 -52 -14 -165 -97 -270 -197 -540 -393 -574 -416 -66 -45 -130 -19 -150 61 -7 31 -11 217 -11 580 l0 535 -30 88 c-77 230 -64 484 34 707 l25 57 -27 11 c-68 28 -221 101 -260 125 -30 17 -41 28 -34 35 7 7 45 -7 119 -45 60 -31 132 -65 161 -76 l52 -21 30 42 c37 50 33 55 -60 87 -87 31 -260 122 -260 138 0 20 10 17 111 -37 107 -56 218 -100 252 -100 13 0 35 16 55 40 l33 40 -23 9 c-13 5 -50 16 -83 26 -55 15 -264 113 -292 137 -6 5 -10 15 -7 22 4 10 29 0 90 -34 110 -62 235 -110 299 -117 47 -5 54 -3 88 27 l37 32 -17 36 c-49 113 -66 194 -66 332 -1 111 3 149 21 215 55 196 171 361 339 483 l27 19 -31 39 c-39 50 -68 134 -59 176 12 60 52 112 107 143 29 15 67 32 83 36 41 11 212 4 257 -10z"/>
 <path d="M8195 4943 c-64 -14 -115 -57 -115 -96 0 -29 50 -76 93 -88 127 -34 240 67 160 143 -23 22 -94 51 -113 47 -3 -1 -14 -3 -25 -6z"/>
 <path d="M7575 4666 c-167 -55 -290 -179 -311 -313 -6 -39 -4 -44 40 -88 58 -57 148 -100 242 -116 135 -22 302 32 402 131 55 54 98 132 108 197 6 40 4 43 -42 89 -27 26 -78 61 -114 78 -58 27 -77 30 -175 33 -72 2 -124 -2 -150 -11z m250 -198 c49 -43 51 -153 4 -191 -90 -73 -196 39 -144 152 28 62 92 80 140 39z"/>
 <path d="M8583 4660 c-59 -21 -124 -63 -167 -108 -25 -27 -28 -36 -24 -76 22 -195 279 -360 510 -327 92 13 184 59 242 121 55 59 55 72 5 177 -46 97 -154 183 -272 218 -72 21 -227 19 -294 -5z m150 -191 c51 -39 57 -129 12 -185 -19 -23 -30 -29 -65 -29 -34 0 -47 6 -66 28 -46 53 -43 129 6 179 34 34 76 37 113 7z"/>
 <path d="M9175 3629 c-21 -28 -76 -83 -122 -122 -46 -39 -83 -74 -83 -79 0 -22 242 -488 250 -483 12 8 14 722 2 729 -5 3 -26 -18 -47 -45z"/>
 <path d="M7226 3662 c-11 -10 -7 -700 4 -707 5 -3 64 103 131 237 l121 242 -38 30 c-22 16 -78 69 -126 117 -47 48 -89 85 -92 81z"/>
 </g>

</svg>